<svg width="128" height="128" viewBox="0 0 128 128" fill="none" xmlns="http://www.w3.org/2000/svg">
  <defs>
    <linearGradient id="g" x1="20" y1="14" x2="108" y2="114" gradientUnits="userSpaceOnUse">
      <stop stop-color="#1f3e2d" />
      <stop offset="1" stop-color="#0f2419" />
    </linearGradient>
  </defs>
  <circle cx="64" cy="64" r="60" fill="url(#g)" stroke="#5bed9f" stroke-width="4" />
  <path
    d="M63.8 26 80 36l-5.6 14.2H52l-5.6-14.2L63.8 26ZM37.5 45.5 50.3 50l3.2 10.3-9.4 7.2-11.1-6.5 4.5-15.5Zm52.8 0 4.5 15.5-11.1 6.5-9.4-7.2 3.2-10.3 12.8-4.5ZM64 77.6l8.6 6-3.2 10.7H58.6l-3.2-10.7 8.6-6Zm-27.4-7 11.3 5.8 3 11.2-10.2 4.8-9.2-8.5 5.1-13.3Zm54.8 0 5.1 13.3-9.2 8.5-10.2-4.8 3-11.2 11.3-5.8Z"
    fill="#0c1711"
    opacity=".82"
  />
</svg>
